<svg xmlns="http://www.w3.org/2000/svg" viewBox="0 0 820 454" width="820" role="img" aria-label="Smaller downloads">
<rect width="820" height="454" rx="10" fill="#ffffff" stroke="#d0d7de"/>
<text x="24" y="34" font-family="-apple-system, 'Segoe UI', Helvetica, Arial, sans-serif" font-size="17" font-weight="700" fill="#1f2328">Smaller downloads</text>
<text x="24" y="54" font-family="-apple-system, 'Segoe UI', Helvetica, Arial, sans-serif" font-size="12.5" fill="#59636e">Release archive size by platform</text>
<rect x="546" y="22" width="12" height="12" rx="2" fill="#afb8c1"/><text x="564" y="32" font-family="-apple-system, 'Segoe UI', Helvetica, Arial, sans-serif" font-size="12.5" fill="#59636e">0.6.2</text>
<rect x="676" y="22" width="12" height="12" rx="2" fill="#1f6feb"/><text x="694" y="32" font-family="-apple-system, 'Segoe UI', Helvetica, Arial, sans-serif" font-size="12.5" fill="#1f2328">0.7.0</text>
<text x="24" y="105" font-family="-apple-system, 'Segoe UI', Helvetica, Arial, sans-serif" font-size="13.5" fill="#1f2328">macOS (Apple silicon)</text>
<rect x="190" y="86" width="391.8" height="15" rx="3" fill="#afb8c1"/>
<text x="589.8" y="98" font-family="-apple-system, 'Segoe UI', Helvetica, Arial, sans-serif" font-size="12.5" font-weight="400" fill="#59636e">63 MiB</text>
<rect x="190" y="106" width="292.3" height="15" rx="3" fill="#1f6feb"/>
<text x="490.3" y="118" font-family="-apple-system, 'Segoe UI', Helvetica, Arial, sans-serif" font-size="12.5" font-weight="700" fill="#1f2328">47 MiB</text>
<text x="24" y="161" font-family="-apple-system, 'Segoe UI', Helvetica, Arial, sans-serif" font-size="13.5" fill="#1f2328">macOS (Intel)</text>
<rect x="190" y="142" width="404.3" height="15" rx="3" fill="#afb8c1"/>
<text x="602.3" y="154" font-family="-apple-system, 'Segoe UI', Helvetica, Arial, sans-serif" font-size="12.5" font-weight="400" fill="#59636e">65 MiB</text>
<rect x="190" y="162" width="304.8" height="15" rx="3" fill="#1f6feb"/>
<text x="502.8" y="174" font-family="-apple-system, 'Segoe UI', Helvetica, Arial, sans-serif" font-size="12.5" font-weight="700" fill="#1f2328">49 MiB</text>
<text x="24" y="217" font-family="-apple-system, 'Segoe UI', Helvetica, Arial, sans-serif" font-size="13.5" fill="#1f2328">Linux x64</text>
<rect x="190" y="198" width="510.0" height="15" rx="3" fill="#afb8c1"/>
<text x="708.0" y="210" font-family="-apple-system, 'Segoe UI', Helvetica, Arial, sans-serif" font-size="12.5" font-weight="400" fill="#59636e">82 MiB</text>
<rect x="190" y="218" width="398.0" height="15" rx="3" fill="#1f6feb"/>
<text x="596.0" y="230" font-family="-apple-system, 'Segoe UI', Helvetica, Arial, sans-serif" font-size="12.5" font-weight="700" fill="#1f2328">64 MiB</text>
<text x="24" y="273" font-family="-apple-system, 'Segoe UI', Helvetica, Arial, sans-serif" font-size="13.5" fill="#1f2328">Linux arm64</text>
<rect x="190" y="254" width="398.0" height="15" rx="3" fill="#afb8c1"/>
<text x="596.0" y="266" font-family="-apple-system, 'Segoe UI', Helvetica, Arial, sans-serif" font-size="12.5" font-weight="400" fill="#59636e">64 MiB</text>
<rect x="190" y="274" width="286.1" height="15" rx="3" fill="#1f6feb"/>
<text x="484.1" y="286" font-family="-apple-system, 'Segoe UI', Helvetica, Arial, sans-serif" font-size="12.5" font-weight="700" fill="#1f2328">46 MiB</text>
<text x="24" y="329" font-family="-apple-system, 'Segoe UI', Helvetica, Arial, sans-serif" font-size="13.5" fill="#1f2328">Windows x64</text>
<rect x="190" y="310" width="329.6" height="15" rx="3" fill="#afb8c1"/>
<text x="527.6" y="322" font-family="-apple-system, 'Segoe UI', Helvetica, Arial, sans-serif" font-size="12.5" font-weight="400" fill="#59636e">53 MiB</text>
<rect x="190" y="330" width="304.8" height="15" rx="3" fill="#1f6feb"/>
<text x="502.8" y="342" font-family="-apple-system, 'Segoe UI', Helvetica, Arial, sans-serif" font-size="12.5" font-weight="700" fill="#1f2328">49 MiB</text>
<text x="24" y="385" font-family="-apple-system, 'Segoe UI', Helvetica, Arial, sans-serif" font-size="13.5" fill="#1f2328">Windows arm64</text>
<rect x="190" y="366" width="304.8" height="15" rx="3" fill="#afb8c1"/>
<text x="502.8" y="378" font-family="-apple-system, 'Segoe UI', Helvetica, Arial, sans-serif" font-size="12.5" font-weight="400" fill="#59636e">49 MiB</text>
<rect x="190" y="386" width="279.9" height="15" rx="3" fill="#1f6feb"/>
<text x="477.9" y="398" font-family="-apple-system, 'Segoe UI', Helvetica, Arial, sans-serif" font-size="12.5" font-weight="700" fill="#1f2328">45 MiB</text>
</svg>
